<?xml version="1.0" encoding="UTF-8"?>
<svg xmlns="http://www.w3.org/2000/svg" version="1.1" viewBox="0 0 20 20">
  <defs>
    <style>
      .cls-1 {
        fill: #fff;
      }

      .cls-1, .cls-2 {
        stroke-width: 0px;
      }

      .cls-2 {
        fill: #8bc24a;
      }
    </style>
  </defs>
  <rect class="cls-1" x="1" y="1" width="5" height="5" rx=".54" ry=".54"/>
  <rect class="cls-1" x="7.5" y="1" width="5" height="5" rx=".54" ry=".54"/>
  <rect class="cls-1" x="14" y="1" width="5" height="5" rx=".54" ry=".54"/>
  <path class="cls-1" d="M5.7,10.55c0-.2.12-.38.3-.46-.06-.03-.11-.06-.15-.11l-1.8-1.8c-.14-.14-.19-.36-.11-.54.02-.06.07-.09.11-.13H1.54c-.3,0-.54.24-.54.54v3.91c0,.3.24.54.54.54h3.91c.1,0,.19-.03.27-.08,0-.03-.02-.06-.02-.09v-1.78Z"/>
  <path class="cls-1" d="M12.5,8.04c0-.3-.24-.54-.54-.54h-.86l1.41,1.41v-.87Z"/>
  <path class="cls-1" d="M15.14,9.18c.13,0,.26.05.35.15l2.04,2.04c.09.09.15.22.15.35v.78h.77c.3,0,.54-.24.54-.54v-3.91c0-.3-.24-.54-.54-.54h-3.91c-.3,0-.54.24-.54.54v2.07l.79-.79c.09-.09.22-.15.35-.15Z"/>
  <circle class="cls-1" cx="3.5" cy="16.5" r="2.5"/>
  <path class="cls-1" d="M8.3,10.14c.13.09.21.24.21.41v.82l.83.83,1.23-1.23-.82-.83h-1.44Z"/>
  <path class="cls-2" d="M15.37,16.08h1.81v-4.35l-2.04-2.04-1.28,1.28,1.51,1.51v3.6ZM17.19,16.99h-6.32l-1.51-1.51.64-.64,1.25,1.25h2.57l-2.53-2.54.65-.65,2.53,2.53v-2.57l-1.24-1.24.64-.64-3.14-3.16h-6.31l1.81,1.81h0s0,0,0,0h3.74l1.33,1.33-1.94,1.94-1.33-1.33v-1.03h-1.81v1.78l3.14,3.14-1.28,1.28,2.04,2.04h8.89l-1.81-1.8Z"/>
</svg>