<?xml version="1.0" encoding="UTF-8"?>
<svg xmlns="http://www.w3.org/2000/svg" version="1.1" viewBox="0 0 144 144">
  <defs>
    <style>
      .cls-1 {
        fill: #c1c1c1;
        fill-rule: evenodd;
      }

      .cls-1, .cls-2, .cls-3 {
        stroke-width: 0px;
        opacity: .5;
      }

      .cls-2 {
        isolation: isolate;
      }

      .cls-2, .cls-3 {
        fill: #fff;
      }
    </style>
  </defs>
  <path class="cls-1" d="M122.9,27c0-3.7-3.1-6.8-6.8-6.8s-4,1-5.2,2.5l9.5,9.5c1.5-1.3,2.5-3.1,2.5-5.2Z"/>
  <path class="cls-1" d="M63.3,44c3.1-1,6.3-1.6,9.6-1.6s2.3,0,3.4.2h11.9c2-.5,4.3-.8,6.9-.8s1.8,0,2.7.1l-8.7-8.7c-.5-.5-1-1.1-1.5-1.8v.4h-9.3v9.3h-9.3v-9.3h-9.3v-9.3h9.3v-9.3h9.3v9.3h7.7c.5-2.1,1.5-4,3-5.5,2.2-2.2,5-3.3,8.1-3.3s5.9,1.2,8.1,3.3l1.2,1.2c2.3-2.6,5.7-4.3,9.6-4.3,6.8,0,13,5.6,13,13-.3,3.8-2,7.2-4.4,9.5l16.5,16.5c1.1-4.7-.6-11.9-4.1-21.7-3.7-10.5-11.1-28.4-19.1-28.4s-11.1,10.5-16,10.5h-14.2c-4.9,0-4.3-10.5-15.4-10.5s-15.4,17.9-19.1,28.4c-3.7,10.5-5.6,18.1-4.2,22.7.7-.9,1.5-1.8,2.4-2.7,3.3-3.3,7.4-5.9,11.9-7.4Z"/>
  <path class="cls-2" d="M136.8,129.6v14.4H7.2v-14.4c0-3.8,1.5-7.5,4.2-10.2,2.7-2.7,6.4-4.2,10.2-4.2h100.8c3.8,0,7.5,1.5,10.2,4.2,2.7,2.7,4.2,6.4,4.2,10.2Z"/>
  <path class="cls-3" d="M101,21.4c-2.1-2.1-5.5-2.1-7.6,0s-2.1,5.5,0,7.6l19.6,19.6h-37c-3.6-.5-7.3,0-10.8,1.1-3.6,1.2-6.9,3.2-9.6,5.9-2.7,2.7-4.7,6-5.9,9.6-1.1,3.5-1.5,7.2-1.1,10.8v21.2c0,3,2.4,5.4,5.4,5.4s5.4-2.4,5.4-5.4v-22.4c-.4-2.1-.2-4.3.5-6.3.7-2,1.8-3.8,3.3-5.3,1.5-1.5,3.3-2.6,5.4-3.3,2-.7,4.2-.9,6.3-.6h.4c0,0,37.8,0,37.8,0l-19.6,19.6c-2.1,2.1-2.1,5.5,0,7.6,1.1,1,2.4,1.6,3.8,1.6s2.8-.5,3.8-1.6l32.6-32.6-32.6-32.6Z"/>
</svg>