<?xml version="1.0" encoding="UTF-8"?>
<svg xmlns="http://www.w3.org/2000/svg" version="1.1" viewBox="0 0 144 144">
  <defs>
    <style>
      .cls-1, .cls-2 {
        fill-rule: evenodd;
      }

      .cls-1, .cls-2, .cls-3 {
        stroke-width: 0px;
      }

      .cls-1, .cls-3 {
        fill: #fff;
      }

      .cls-2 {
        fill: #c1c1c1;
      }

      .cls-2, .cls-3 {
        opacity: .5;
      }

      .cls-3 {
        isolation: isolate;
      }
    </style>
  </defs>
  <path class="cls-2" d="M70.8,55.5v-14.4h2.4v12.1c-.8.8-1.6,1.6-2.4,2.3ZM69.2,34.3v-2.3h-2.3c.9.7,1.6,1.4,2.3,2.3ZM137.1,31.3c-3.7-10.5-11.1-28.4-19.1-28.4s-11.1,10.5-16,10.5h-14.2c-4.9,0-4.3-10.5-15.4-10.5s-14.8,16.5-18.7,27.1c.1,0,.3,0,.4,0h5.9v-7.4h9.3v-9.3h9.3v3.3c1.3-.7,2.8-1.1,4.4-1.1s4.1.7,5.7,1.9l14.6,11c0-.5,0-1,0-1.5,0-6.8,5.6-13,13-13s13,5.6,13,13c-.6,6.6-5.1,11.8-10.9,12.8l18.4,13.8c1.2.9,2.1,1.9,2.7,3.2,3.8-4.1,2.4-12.5-2.2-25.4ZM116.1,20.2c-3.7,0-6.8,3.1-6.8,6.8s3.1,6.8,6.8,6.8,6.8-3.1,6.8-6.8-3.1-6.8-6.8-6.8Z"/>
  <path class="cls-3" d="M136.8,129.6v14.4H7.2v-14.4c0-3.8,1.5-7.5,4.2-10.2,2.7-2.7,6.4-4.2,10.2-4.2h100.8c3.8,0,7.5,1.5,10.2,4.2,2.7,2.7,4.2,6.4,4.2,10.2Z"/>
  <path class="cls-1" d="M64.8,39.6v43.2c0,2-1.6,3.6-3.6,3.6h-7.2c-2,0-3.6-1.6-3.6-3.6v-43.2c0-2,1.6-3.6,3.6-3.6h7.2c2,0,3.6,1.6,3.6,3.6ZM32.4,50.4h-7.2c-2,0-3.6,1.6-3.6,3.6v14.4c0,2,1.6,3.6,3.6,3.6h7.2c2,0,3.6-1.6,3.6-3.6v-14.4c0-2-1.6-3.6-3.6-3.6ZM133,58.3l-48-36c-2.4-1.8-5.8,0-5.8,2.9v72c0,3,3.4,4.7,5.8,2.9l48-36c1.9-1.4,1.9-4.3,0-5.8Z"/>
</svg>