<?xml version="1.0" encoding="UTF-8"?>
<svg xmlns="http://www.w3.org/2000/svg" version="1.1" viewBox="0 0 144 144">
  <defs>
    <style>
      .cls-1 {
        fill: #c1c1c1;
        fill-rule: evenodd;
      }

      .cls-1, .cls-2, .cls-3 {
        stroke-width: 0px;
        opacity: .5;
      }

      .cls-2 {
        isolation: isolate;
      }

      .cls-2, .cls-3 {
        fill: #fff;
      }
    </style>
  </defs>
  <path class="cls-1" d="M90.8,42.1l-1.6-1.6c-2.2-2.2-3.3-5-3.3-8.1s0-.3,0-.5h-7.4v9.3h-9.3v-9.3h-9.3v-9.3h9.3v-9.3h9.3v9.3h9.3v3.5c.4-.6.9-1.2,1.5-1.8,2.2-2.2,5-3.3,8.1-3.3s4.6.7,6.5,2.1c1.6-5.1,6.4-9.1,12.3-9.1s13,5.6,13,13c-.5,5.9-4.1,10.5-8.9,12.2l18.3,18.3c4.9-3.8,3.5-12.4-1.3-26.2-3.7-10.5-11.1-28.4-19.1-28.4s-11.1,10.5-16,10.5h-14.2c-4.9,0-4.3-10.5-15.4-10.5s-15.4,17.9-19.1,28.4c-2.8,7.8-4.5,14-4.6,18.5h28.1c3.4-3.5,7.5-6.7,14.2-7.7Z"/>
  <path class="cls-1" d="M122.9,27c0-3.7-3.1-6.8-6.8-6.8s-6.8,3.1-6.8,6.8,0,1.1.2,1.6l5,5c.5.1,1,.2,1.6.2,3.7,0,6.8-3.1,6.8-6.8Z"/>
  <path class="cls-2" d="M136.8,129.6v14.4H7.2v-14.4c0-3.8,1.5-7.5,4.2-10.2,2.7-2.7,6.4-4.2,10.2-4.2h100.8c3.8,0,7.5,1.5,10.2,4.2,2.7,2.7,4.2,6.4,4.2,10.2Z"/>
  <path class="cls-3" d="M101,28.6c-2.1-2.1-5.5-2.1-7.6,0-2.1,2.1-2.1,5.5,0,7.6l19.6,19.6H10.8c-3,0-5.4,2.4-5.4,5.4s2.4,5.4,5.4,5.4h102.2l-19.6,19.6c-2.1,2.1-2.1,5.5,0,7.6,1.1,1,2.4,1.6,3.8,1.6s2.8-.5,3.8-1.6l32.6-32.6-32.6-32.6Z"/>
</svg>