<?xml version="1.0" encoding="UTF-8"?>
<svg xmlns="http://www.w3.org/2000/svg" version="1.1" viewBox="0 0 144 144">
  <defs>
    <style>
      .cls-1 {
        fill: #c1c1c1;
        fill-rule: evenodd;
      }

      .cls-1, .cls-2 {
        opacity: .5;
      }

      .cls-1, .cls-2, .cls-3 {
        stroke-width: 0px;
      }

      .cls-2 {
        isolation: isolate;
      }

      .cls-2, .cls-3 {
        fill: #fff;
      }
    </style>
  </defs>
  <path class="cls-1" d="M137.1,31.3c-3.7-10.5-11.1-28.4-19.1-28.4s-11.1,10.5-16,10.5h-14.2c-4.9,0-4.3-10.5-15.4-10.5s-10.8,9-14.9,17.9c3.1,0,6.1.6,9,1.5.3,0,.5.2.8.3h2v-9.3h9.3v9.3h9.3v9.3h-7.5c2.4,2.9,4.2,6.2,5.4,9.8.2.5.3,1.1.5,1.6,2.5-.9,5.4-1.5,9-1.5,19.1,0,19.7,17.9,34.6,17.9s14.2-9.3,7.4-28.4ZM116.1,39.9c-6.8,0-13-5.6-13-13s5.6-13,13-13,13,5.6,13,13c-.6,7.4-6.2,13-13,13Z"/>
  <path class="cls-1" d="M64.3,52.3c.2-1.2,0-2.4-.3-3.5-.4-1.1-1-2.2-1.9-3-.8-.8-1.9-1.5-3-1.8-.8-.3-1.6-.4-2.4-.4s-.7,0-1.1,0h-.9c0,.1-5.5.1-5.5.1-2.4,10.7,0,15.9,10.6,15.9s3-.2,4.3-.5v-6.8Z"/>
  <path class="cls-1" d="M116.1,20.2c-3.7,0-6.8,3.1-6.8,6.8s3.1,6.8,6.8,6.8,6.8-3.1,6.8-6.8-3.1-6.8-6.8-6.8Z"/>
  <path class="cls-2" d="M136.8,129.6v14.4H7.2v-14.4c0-3.8,1.5-7.5,4.2-10.2,2.7-2.7,6.4-4.2,10.2-4.2h100.8c3.8,0,7.5,1.5,10.2,4.2,2.7,2.7,4.2,6.4,4.2,10.2Z"/>
  <path class="cls-3" d="M100.6,64.6l-19.6,19.6v-29.8c.5-3.6,0-7.3-1.1-10.8-1.2-3.6-3.2-6.9-5.9-9.6-2.7-2.7-6-4.7-9.6-5.9-3.5-1.2-7.2-1.5-10.8-1.1H10.8c-3,0-5.4,2.4-5.4,5.4s2.4,5.4,5.4,5.4h44c2.1-.4,4.3-.2,6.3.5,2,.7,3.9,1.8,5.4,3.3,1.5,1.5,2.6,3.4,3.3,5.4.7,2,.9,4.2.6,6.3v.4s0,30.5,0,30.5l-19.6-19.6c-2.1-2.1-5.5-2.1-7.6,0s-2.1,5.5,0,7.6l28.8,28.8,3.8,3.8,32.6-32.6c2.1-2.1,2.1-5.5,0-7.6s-5.5-2.1-7.6,0Z"/>
</svg>