<?xml version="1.0" encoding="UTF-8"?>
<svg xmlns="http://www.w3.org/2000/svg" version="1.1" viewBox="0 0 144 144">
  <defs>
    <style>
      .cls-1, .cls-2 {
        fill-rule: evenodd;
      }

      .cls-1, .cls-2, .cls-3, .cls-4 {
        stroke-width: 0px;
      }

      .cls-1, .cls-3, .cls-4 {
        fill: #fff;
      }

      .cls-2 {
        fill: #c1c1c1;
      }

      .cls-2, .cls-3 {
        opacity: .5;
      }

      .cls-3 {
        isolation: isolate;
      }
    </style>
  </defs>
  <path class="cls-2" d="M137.1,31.3c-3.7-10.5-11.1-28.4-19.1-28.4s-11.1,10.5-16,10.5h-14.2c-4.9,0-4.3-10.5-15.4-10.5s-8.6,5.8-12.3,12.7c.4,0,.9,0,1.3,0h2.6c1.8.2,3.6.5,5.4.9v-3.1h9.3v6.5c1.5.8,2.9,1.7,4.3,2.7h5v4.4c4,4.2,6.9,9.3,8.5,14.8,18.1.7,19,17.9,33.5,17.9s14.2-9.3,7.4-28.4ZM116.1,39.9c-6.8,0-13-5.6-13-13s5.6-13,13-13,13,5.6,13,13c-.6,7.4-6.2,13-13,13ZM77,45.4c.4,1,.7,2,.9,3.1-5.5,5.1-9,11.2-18,11.2s-13.5-7-9.1-21.3c3-2.3,6.7-3.6,10.4-3.6s5.5.7,8,2v4.4h5.3c1,1.3,1.9,2.7,2.5,4.2ZM122.9,27c0,3.7-3.1,6.8-6.8,6.8s-6.8-3.1-6.8-6.8,3.1-6.8,6.8-6.8,6.8,3.1,6.8,6.8Z"/>
  <path class="cls-3" d="M136.8,129.6v14.4H7.2v-14.4c0-3.8,1.5-7.5,4.2-10.2,2.7-2.7,6.4-4.2,10.2-4.2h100.8c3.8,0,7.5,1.5,10.2,4.2,2.7,2.7,4.2,6.4,4.2,10.2Z"/>
  <path class="cls-1" d="M80.7,79.2l21.6,21.6c1.8-.3,3.5-1.2,4.6-2.7,2.7-2.7,2.7-4.6,2.7-4.6l-21.6-21.6-7.3,7.3Z"/>
  <path class="cls-4" d="M61.2,28.8c4.6,0,9,1.4,12.8,3.9s6.8,6.1,8.5,10.4,2.2,8.9,1.3,13.3-3.1,8.6-6.3,11.8c-3.2,3.2-7.3,5.4-11.8,6.3-4.5.9-9.1.4-13.3-1.3-4.2-1.8-7.8-4.7-10.4-8.5-2.5-3.8-3.9-8.3-3.9-12.8s2.4-12,6.8-16.3c4.3-4.3,10.2-6.8,16.3-6.8h0ZM61.2,21.6c-6,0-11.9,1.8-16.9,5.1-5,3.3-8.9,8.1-11.2,13.6-2.3,5.5-2.9,11.7-1.7,17.6,1.2,5.9,4.1,11.3,8.3,15.6,4.2,4.2,9.7,7.1,15.6,8.3,5.9,1.2,12,.6,17.6-1.7,5.6-2.3,10.3-6.2,13.6-11.2,3.3-5,5.1-10.9,5.1-16.9s-3.2-15.8-8.9-21.5c-5.7-5.7-13.4-8.9-21.5-8.9h0Z"/>
</svg>