<?xml version="1.0" encoding="UTF-8"?>
<svg xmlns="http://www.w3.org/2000/svg" version="1.1" viewBox="0 0 144 144">
  <defs>
    <style>
      .cls-1 {
        fill: #c1c1c1;
        fill-rule: evenodd;
      }

      .cls-1, .cls-2, .cls-3 {
        stroke-width: 0px;
        opacity: .5;
      }

      .cls-2 {
        isolation: isolate;
      }

      .cls-2, .cls-3 {
        fill: #fff;
      }
    </style>
  </defs>
  <path class="cls-1" d="M116.1,33.8c3.7,0,6.8-3.1,6.8-6.8s-3.1-6.8-6.8-6.8-6.8,3.1-6.8,6.8,3.1,6.8,6.8,6.8Z"/>
  <path class="cls-1" d="M137.1,31.3c-3.7-10.5-11.1-28.4-19.1-28.4s-11.1,10.5-16,10.5h-14.2c-4.9,0-4.3-10.5-15.4-10.5s-14.5,16-18.5,26.6c.4.3.7.6,1.1.9l17.5,17.5,17.4-17.4c1.8-1.8,4.2-2.8,6.8-2.8s5,1,6.8,2.8l.4.4c-.4-1.2-.6-2.5-.6-3.8,0-6.8,5.6-13,13-13s13,5.6,13,13c-.6,7.4-6.2,13-13,13s-4.9-.8-7-2.1c.3.9.4,1.8.4,2.7,0,1.8-.5,3.5-1.4,5,7.8,5.3,11.2,14.1,21.6,14.1s14.2-9.3,7.4-28.4ZM87.7,31.9h-9.3v9.3h-9.3v-9.3h-9.3v-9.3h9.3v-9.3h9.3v9.3h9.3v9.3Z"/>
  <path class="cls-2" d="M136.8,129.6v14.4H7.2v-14.4c0-3.8,1.5-7.5,4.2-10.2,2.7-2.7,6.4-4.2,10.2-4.2h100.8c3.8,0,7.5,1.5,10.2,4.2,2.7,2.7,4.2,6.4,4.2,10.2Z"/>
  <path class="cls-3" d="M80.8,64.8l21.7-21.7c1.4-1.4,1.4-3.7,0-5.1l-3.4-3.4c-1.4-1.4-3.7-1.4-5.1,0l-21.7,21.7-21.7-21.7c-1.4-1.4-3.7-1.4-5.1,0l-3.4,3.4c-1.4,1.4-1.4,3.7,0,5.1l21.7,21.7-21.7,21.7c-1.4,1.4-1.4,3.7,0,5.1l3.4,3.4c1.4,1.4,3.7,1.4,5.1,0l21.7-21.7,21.7,21.7c1.4,1.4,3.7,1.4,5.1,0l3.4-3.4c1.4-1.4,1.4-3.7,0-5.1l-21.7-21.7Z"/>
</svg>