<?xml version="1.0" encoding="UTF-8"?>
<svg xmlns="http://www.w3.org/2000/svg" version="1.1" viewBox="0 0 144 144">
  <defs>
    <style>
      .cls-1 {
        fill: #303030;
      }

      .cls-1, .cls-2 {
        stroke-width: 0px;
      }

      .cls-2 {
        fill: #949494;
      }
    </style>
  </defs>
  <g id="Gamepad">
    <path class="cls-1" d="M127.02,43.32c-17.7-29.08-44.36-8.85-44.36-8.85-1.73,1.31-4.92,2.38-7.08,2.39h-7.14c-2.17,0-5.35-1.07-7.08-2.37,0,0-26.66-20.24-44.37,8.84C-.71,72.39,6.42,104.05,6.42,104.05c1.25,7.75,5.37,12.92,13.14,12.27,7.75-.65,24.57-20.87,24.57-20.87,1.39-1.67,4.3-3.03,6.46-3.03h42.81c2.16,0,5.07,1.35,6.46,3.02,0,0,16.82,20.23,24.58,20.87,7.76.65,11.89-4.53,13.13-12.27,0,0,7.14-31.65-10.56-60.73ZM55.91,66.99h-9.18v8.85s-1.94,1.48-4.95,1.45c-3-.04-4.36-1.62-4.36-1.62v-8.67h-8.67s-1.08-1.11-1.37-4.03c-.28-2.92,1.2-5.28,1.2-5.28h9.18v-9.18s1.89-1.01,4.61-.93c1.63.05,3.23.43,4.71,1.11l-.04,9.01h8.67s1.51,1.94,1.64,4.29c.12,2.35-1.43,5.02-1.43,5.02ZM98.02,77.07c-4.01,0-7.26-3.24-7.26-7.25,0,0,0-.01,0-.02,0-4,3.23-7.26,7.24-7.27,0,0,.02,0,.03,0,4.01-.11,7.35,3.06,7.46,7.08.11,4.01-3.06,7.35-7.08,7.46-.13,0-.25,0-.38,0h0ZM98.02,57.08c-4.01,0-7.26-3.24-7.26-7.25,0,0,0-.01,0-.02,0-4,3.23-7.26,7.24-7.27,0,0,.02,0,.03,0,4.01,0,7.27,3.25,7.27,7.27,0,4.01-3.26,7.26-7.27,7.26ZM116.12,67.81c-4.01,0-7.26-3.24-7.26-7.25,0,0,0-.01,0-.02,0-4.01,3.24-7.26,7.24-7.27,0,0,.01,0,.02,0,4.01,0,7.27,3.25,7.27,7.27,0,4.01-3.26,7.27-7.27,7.27Z"/>
  </g>
  <g id="Play">
    <path class="cls-2" d="M98.55,69.43l-49.78-30.92c-.96-.6-2.17-.63-3.16-.09-1,.54-1.61,1.56-1.61,2.68v61.83c0,1.11.62,2.14,1.61,2.68.47.25.98.38,1.5.38.58,0,1.16-.16,1.66-.47l49.78-30.91c.9-.56,1.45-1.53,1.45-2.58s-.55-2.02-1.45-2.58Z"/>
  </g>
</svg>