<?xml version="1.0" encoding="UTF-8"?>
<svg xmlns="http://www.w3.org/2000/svg" version="1.1" viewBox="0 0 144 144">
  <defs>
    <style>
      .cls-1 {
        fill: #595959;
        fill-rule: evenodd;
        isolation: isolate;
        opacity: .5;
      }

      .cls-1, .cls-2 {
        stroke-width: 0px;
      }

      .cls-2 {
        fill: #858585;
      }
    </style>
  </defs>
  <path class="cls-1" d="M69.2,22.6v-9.3h9.3v9.3h9.3v9.3h-9.3v.3l17.9,9.6c9.7.4,14.4,5.6,19,10.2l14.2,7.6c0,0,.1,0,.2,0,14.2,0,14.2-9.3,7.4-28.4-3.7-10.5-11.1-28.4-19.1-28.4s-11.1,10.5-16,10.5h-14.2c-4.9,0-4.3-10.5-15.4-10.5s-10.8,9-14.9,17.9l3.4,1.8h8.4ZM116.1,14c6.8,0,13,5.6,13,13-.6,7.4-6.2,13-13,13s-13-5.6-13-13,5.6-13,13-13Z"/>
  <path class="cls-1" d="M116.1,33.8c3.7,0,6.8-3.1,6.8-6.8s-3.1-6.8-6.8-6.8-6.8,3.1-6.8,6.8,3.1,6.8,6.8,6.8Z"/>
  <path class="cls-2" d="M131.1,66.5L18.5,5.8c-2.8-1.8-6.3-1-8,1.6-.8,1.1-1,2.4-1,3.8v122.5c.3,3.3,3,5.6,6.3,5.4,1,0,1.9-.4,2.8-.9h0l112.6-60.8c3-1.5,4.3-5.1,2.8-8.1-.6-1.1-1.5-2.1-2.8-2.8Z"/>
</svg>