<?xml version="1.0" encoding="UTF-8"?>
<svg xmlns="http://www.w3.org/2000/svg" version="1.1" viewBox="0 0 144 144">
  <defs>
    <style>
      .cls-1, .cls-2 {
        fill-rule: evenodd;
      }

      .cls-1, .cls-2, .cls-3, .cls-4 {
        stroke-width: 0px;
      }

      .cls-1, .cls-3, .cls-4 {
        fill: #9f9f9f;
      }

      .cls-2 {
        fill: #c1c1c1;
      }

      .cls-2, .cls-3 {
        isolation: isolate;
        opacity: .5;
      }
    </style>
  </defs>
  <path class="cls-2" d="M137.1,31.3c-3.7-10.5-11.1-28.4-19.1-28.4s-11.1,10.5-16,10.5h-14.2c-4.9,0-4.3-10.5-15.4-10.5s-11.1,9.5-15.3,18.7l2.9,1.6v-.5h9.3v-9.3h9.3v9.3h9.3v9.3h-9.3v1.2l16.1,8.7h.6c19.1,0,19.7,17.9,34.6,17.9s14.2-9.3,7.4-28.4h-.2ZM116.1,39.9c-6.8,0-13-5.6-13-13s5.6-13,13-13,13,5.6,13,13c-.6,7.4-6.2,13-13,13Z"/>
  <path class="cls-2" d="M116.1,20.2c-3.7,0-6.8,3.1-6.8,6.8s3.1,6.8,6.8,6.8,6.8-3.1,6.8-6.8-3.1-6.8-6.8-6.8Z"/>
  <path class="cls-1" d="M66.7,99.6h-.4l-30.2,4.5v28.1l18.4,2.7,4.3-12.8,5.3-7.2,5.7,7.6,5.6,15.6,31.6,4.7c3.9.6,7.6-2.1,8.2-6,0-.4,0-.8,0-1.2v-34.6c0-4-3.1-7.2-7.1-7.3-.4,0-.8,0-1.2,0l-40.2,6ZM39.2,126.8v-17.4l19.1-1.4-6.5,20.2-12.6-1.4ZM105.4,132.5l-26.2-2.2-8.9-23.7,35.1-3v28.9Z"/>
  <path class="cls-3" d="M135.2,94.2l-25.9-.6h-2.4c3.9-.6,7.6,2.1,8.2,6,0,.4,0,.8,0,1.2v34.7c0,1.9-.8,3.7-2.2,5l25.7-10.9c3.2-1.7,5.2-5,5.3-8.6v-17.7c0-4.9-3.9-8.8-8.8-9.1Z"/>
  <path class="cls-4" d="M97.2,49.3L7.2.8C5-.6,2.2,0,.8,2.1c-.6.9-.8,1.9-.8,3v97.9c.2,2.6,2.4,4.5,5,4.3.8,0,1.5-.3,2.2-.7l90-48.6c2.4-1.2,3.4-4.1,2.2-6.5-.5-.9-1.2-1.7-2.2-2.2Z"/>
</svg>