<?xml version="1.0" encoding="UTF-8"?>
<svg xmlns="http://www.w3.org/2000/svg" version="1.1" viewBox="0 0 144 144">
  <defs>
    <style>
      .cls-1, .cls-2 {
        fill-rule: evenodd;
      }

      .cls-1, .cls-2, .cls-3 {
        stroke-width: 0px;
      }

      .cls-1, .cls-3 {
        fill: #8bc24a;
      }

      .cls-2 {
        fill: #c1c1c1;
        isolation: isolate;
        opacity: .5;
      }
    </style>
  </defs>
  <path class="cls-2" d="M116.1,39.9c-5.5,0-10.7-3.7-12.4-9.1h-15.8v1.2h-9.3v1.2l16.1,8.7h.6c18.1,0,19.6,16,32.3,17.7v-27.2c-2.2,4.5-6.5,7.5-11.5,7.5Z"/>
  <path class="cls-2" d="M116.1,13.9c4.7,0,8.6,2.2,10.9,5.7h3.1c.9,0,1.8.1,2.6.4-3.9-8.7-9.1-17.1-14.6-17.1-8,0-11.1,10.5-16,10.5h-14.2c-4.9,0-4.3-10.5-15.4-10.5s-11.1,9.5-15.3,18.7l2.9,1.6v-.5h9.3v-9.3h9.3v6.2h26.6c2.3-3.5,6.2-5.7,10.9-5.7Z"/>
  <path class="cls-2" d="M138.8,35.8v21.9c4.6-3.3,3.7-10.6,0-21.9Z"/>
  <path class="cls-2" d="M116.1,33.8c2.3,0,4.4-1.2,5.6-3h-11.2c1.2,1.8,3.3,3,5.6,3Z"/>
  <path class="cls-1" d="M71.6,136.8h58.5c3.7,0,6.8-3,6.8-6.8h0V28.4c0-3.7-3-6.8-6.8-6.8h-55.5l11.9,7.2h43.2v79.2h-57.6v-22.2l-7.2,4.3v40c0,3.7,3,6.8,6.8,6.8h0ZM90,122.4c0-6,4.8-10.8,10.8-10.8s10.8,4.8,10.8,10.8-4.8,10.8-10.8,10.8-10.8-4.8-10.8-10.8Z"/>
  <path class="cls-3" d="M97.2,49.3L7.2.8C5-.6,2.2,0,.8,2.1c-.6.9-.8,1.9-.8,3v97.9c.2,2.6,2.4,4.5,5,4.3.8,0,1.5-.3,2.2-.7l90-48.6c2.4-1.2,3.4-4.1,2.2-6.5-.5-.9-1.2-1.7-2.2-2.2Z"/>
</svg>