<?xml version="1.0" encoding="UTF-8"?>
<svg xmlns="http://www.w3.org/2000/svg" version="1.1" viewBox="0 0 144 144">
  <defs>
    <style>
      .cls-1 {
        fill: #c1c1c1;
        fill-rule: evenodd;
      }

      .cls-1, .cls-2 {
        isolation: isolate;
        opacity: .5;
      }

      .cls-1, .cls-2, .cls-3 {
        stroke-width: 0px;
      }

      .cls-2, .cls-3 {
        fill: #9f9f9f;
      }
    </style>
  </defs>
  <path class="cls-3" d="M7.21,107.28l90.64-48.96c2.39-1.19,3.36-4.08,2.17-6.47-.47-.94-1.23-1.71-2.17-2.17L7.21.72C4.96-.64,2.04.09.68,2.33.19,3.15-.04,4.09,0,5.04v98.64c.19,2.58,2.43,4.52,5,4.33.78-.06,1.54-.31,2.2-.73Z"/>
  <path class="cls-3" d="M59.4,93.6h77.4v-21.6h-38.23l-39.17,21.6ZM111.6,75.6c3.98,0,7.2,3.22,7.2,7.2,0-3.98,3.22-7.2,7.2-7.2s7.2,3.22,7.2,7.2-3.22,7.2-7.2,7.2-7.2-3.22-7.2-7.2c0,3.98-3.22,7.2-7.2,7.2s-7.2-3.22-7.2-7.2c0,3.98-3.22,7.2-7.2,7.2s-7.2-3.22-7.2-7.2,3.22-7.2,7.2-7.2,7.2,3.22,7.2,7.2c0-3.98,3.22-7.2,7.2-7.2Z"/>
  <polygon class="cls-2" points="36 106.48 36 143.99 136.8 143.99 136.8 93.6 59.4 93.6 36 106.48"/>
  <path class="cls-1" d="M137.1,31.3c-3.7-10.5-11.1-28.4-19.1-28.4s-11.1,10.5-16,10.5h-14.2c-4.9,0-4.3-10.5-15.4-10.5s-11.1,9.5-15.3,18.7l2.9,1.6v-.5h9.3v-9.3h9.3v9.3h9.3v9.3h-9.3v1.2l16.1,8.7h.6c19.1,0,19.7,17.9,34.6,17.9s14.2-9.3,7.4-28.4l-.2-.1ZM116.1,39.9c-6.8,0-13-5.6-13-13s5.6-13,13-13,13,5.6,13,13c-.6,7.4-6.2,13-13,13Z"/>
  <path class="cls-1" d="M116.1,20.2c-3.7,0-6.8,3.1-6.8,6.8s3.1,6.8,6.8,6.8,6.8-3.1,6.8-6.8-3.1-6.8-6.8-6.8Z"/>
</svg>