<?xml version="1.0" encoding="UTF-8"?>
<svg xmlns="http://www.w3.org/2000/svg" version="1.1" viewBox="0 0 144 144">
  <defs>
    <style>
      .cls-1 {
        fill: #c1c1c1;
        fill-rule: evenodd;
        isolation: isolate;
        opacity: .5;
      }

      .cls-1, .cls-2 {
        stroke-width: 0px;
      }

      .cls-2 {
        fill: #9f9f9f;
      }
    </style>
  </defs>
  <path class="cls-1" d="M129.7,59.7c14.2,0,14.2-9.3,7.4-28.4-3.7-10.5-11.1-28.4-19.1-28.4s-11.1,10.5-16,10.5h-14.2c-4.9,0-4.3-10.5-15.4-10.5s-12.8,12.5-17,22.7l4.6,2.5v-5.5h9.3v-9.3h9.3v9.3h9.3v9.3h-9.3v6.2l8.8,4.8c2.2-.7,4.8-1.1,7.8-1.1,19.1,0,19.7,17.9,34.6,17.9ZM116.1,14c6.8,0,13,5.6,13,13-.6,7.4-6.2,13-13,13s-13-5.6-13-13,5.6-13,13-13Z"/>
  <polygon class="cls-1" points="66.9 31.9 69.2 33.1 69.2 31.9 66.9 31.9"/>
  <path class="cls-1" d="M116.1,33.8c3.7,0,6.8-3.1,6.8-6.8s-3.1-6.8-6.8-6.8-6.8,3.1-6.8,6.8,3.1,6.8,6.8,6.8Z"/>
  <path class="cls-2" d="M119.2,67.6L29.2,19.1c-2.2-1.4-5-.8-6.4,1.3-.6.9-.8,1.9-.8,3v97.9c.2,2.6,2.4,4.5,5,4.3.8,0,1.5-.3,2.2-.7h0l90-48.6c2.4-1.2,3.4-4.1,2.2-6.5-.5-.9-1.2-1.7-2.2-2.2h0Z"/>
</svg>