<?xml version="1.0" encoding="UTF-8"?>
<svg xmlns="http://www.w3.org/2000/svg" version="1.1" viewBox="0 0 144 144">
  <defs>
    <style>
      .cls-1 {
        fill: #c1c1c1;
        fill-rule: evenodd;
        isolation: isolate;
        opacity: .5;
      }

      .cls-1, .cls-2, .cls-3 {
        stroke-width: 0px;
      }

      .cls-2 {
        isolation: isolate;
        opacity: .5;
      }

      .cls-2, .cls-3 {
        fill: #9f9f9f;
      }
    </style>
  </defs>
  <path class="cls-1" d="M137.1,31.3c-3.7-10.5-11.1-28.4-19.1-28.4s-11.1,10.5-16,10.5h-14.2c-4.9,0-4.3-10.5-15.4-10.5s-11.1,9.5-15.3,18.7l2.9,1.6v-.5h9.3v-9.3h9.3v9.3h9.3v9.3h-9.3v1.2l16.1,8.7c.2,0,.4,0,.6,0,19.1,0,19.7,17.9,34.6,17.9s14.2-9.3,7.4-28.4ZM116.1,39.9c-6.8,0-13-5.6-13-13s5.6-13,13-13,13,5.6,13,13c-.6,7.4-6.2,13-13,13Z"/>
  <path class="cls-1" d="M116.1,20.2c-3.7,0-6.8,3.1-6.8,6.8s3.1,6.8,6.8,6.8,6.8-3.1,6.8-6.8-3.1-6.8-6.8-6.8Z"/>
  <path class="cls-3" d="M97.2,49.3L7.2.8C5-.6,2.2,0,.8,2.1c-.6.9-.8,1.9-.8,3v97.9c.2,2.6,2.4,4.5,5,4.3.8,0,1.5-.3,2.2-.7l90-48.6c2.4-1.2,3.4-4.1,2.2-6.5-.5-.9-1.2-1.7-2.2-2.2Z"/>
  <path class="cls-3" d="M72.6,101.2l-7.8-1.5c-.5-1.7-1.2-3.4-2.1-5l4.9-6.5c-.4-.6-1-1-1.4-1.5l-10.3,6c6.3,4.8,7.5,13.9,2.6,20.2-4.8,6.3-13.9,7.5-20.2,2.6-3-2.3-4.9-5.6-5.5-9.3l-4,2.2c.4,1.8,1.1,3.5,2.1,5l-4.8,6.5c1.4,1.8,3,3.3,4.8,4.7l6.6-4.9c1.6,1,3.3,1.7,5,2.1l1.2,8.1,3.2.4c1.2,0,2.5-.1,3.7-.4l.8-7.8c1.8-.4,3.5-1.1,5-2l6.5,4.8c1.7-1.3,3.3-2.8,4.6-4.5l-4.9-6.6c1.1-1.6,1.9-3.4,2.4-5.3l7.8-.9v-3.2c.1-1.1.1-2.2,0-3.2h-.2Z"/>
  <path class="cls-3" d="M46.9,99.3c-2.6,0-4.8,2.2-4.8,4.8s2.1,4.8,4.8,4.8,4.8-2.2,4.8-4.8-2.2-4.8-4.8-4.8Z"/>
  <path class="cls-3" d="M103.9,98.7c-2.6.3-4.5,2.7-4.2,5.4,0,2.7,2.1,4.8,4.8,4.8s4.8-2.2,4.8-4.8v-1.2c-.3-2.6-2.7-4.5-5.4-4.2Z"/>
  <path class="cls-3" d="M130.2,101v.2l-7.8-1.5c-.5-1.7-1.2-3.4-2.1-5l4.9-6.5c-1.3-1.7-2.8-3.3-4.5-4.6l-6.6,4.8c-1.6-.9-3.2-1.6-5-2.1l-1.2-8.1-3.2-.4c-1.1,0-2.1.2-3.2.4l-1.5,7.8c-1.8.4-3.5,1.1-5,2.1l-6.6-4.9c-1.7,1.3-3.2,2.8-4.5,4.5l4.8,6.6c-.9,1.6-1.7,3.3-2.1,5l-8.1,1.1v3.2c0,1.1,0,2.2,0,3.2l8,1.2c.4,1.8,1.1,3.5,2.1,5l-4.8,6.5c1.3,1.7,2.8,3.3,4.5,4.6l6.6-4.9c1.6,1,3.3,1.7,5,2.1l1.2,8.1,3.2.4c1.1,0,2.2-.2,3.3-.4l1.2-7.5c1.8-.4,3.5-1.1,5-2l6.5,4.8c1.7-1.3,3.3-2.8,4.6-4.5l-4.9-6.6c1-1.5,1.7-3.2,2.1-5l8.1-1.2v-3.2c0-1.1,0-2.2,0-3.2ZM104.4,118.5c-7.9,0-14.4-6.4-14.4-14.4s6.4-14.4,14.4-14.4,14.4,6.4,14.4,14.4-6.4,14.4-14.4,14.4Z"/>
  <path class="cls-2" d="M104.4,64.6h0c0,0-12.3,7.1-12.3,7.1h12.3c17.9,0,32.4,14.5,32.4,32.4s-14.5,32.4-32.4,32.4H39.6c-12.1,0-23.3-6.8-28.8-17.6l-6.3,3.7c6.8,13,20.3,21.2,35.1,21.2h64.8c21.9,0,39.6-17.7,39.6-39.6s-17.7-39.6-39.6-39.6Z"/>
</svg>