<?xml version="1.0" encoding="UTF-8"?>
<svg xmlns="http://www.w3.org/2000/svg" version="1.1" viewBox="0 0 144 144">
  <defs>
    <style>
      .cls-1 {
        fill: #ff4040;
      }

      .cls-1, .cls-2 {
        stroke-width: 0px;
      }

      .cls-2 {
        fill: #c1c1c1;
        fill-rule: evenodd;
        opacity: .5;
      }
    </style>
  </defs>
  <path class="cls-2" d="M136.9,31.3c-3.7-10.5-11.1-28.4-19.1-28.4s-11.1,10.5-16,10.5h-14.2c-4.9,0-4.3-10.5-15.4-10.5s-12.3,11.6-16.5,21.6h4.2v-1.9h9.3v-9.3h9.3v9.3h9.3v1.9h15.7c1.2-5.7,6.2-10.5,12.7-10.5s13,5.6,13,13c-.5,6-4.3,10.8-9.3,12.4v16.8c2.7,2.1,5.7,3.5,9.9,3.5,14.2,0,14.2-9.3,7.4-28.4Z"/>
  <path class="cls-2" d="M122.7,27c0-3.7-3.1-6.8-6.8-6.8s-5.3,1.8-6.3,4.3h.4c4.9,0,8.8,3.5,9.4,8.2,1.9-1.2,3.2-3.3,3.2-5.8Z"/>
  <rect class="cls-1" x="31.5" y="30.5" width="80" height="80" rx="8" ry="8"/>
</svg>