<svg xmlns="http://www.w3.org/2000/svg" width="144" height="144" viewBox="0 0 144 144">
  <defs>
    <style>
      .cls-1 {
        fill: #fff;
      }
    </style>
  </defs>
  <path class="cls-1" d="M72,0C32.4,0,0,32.4,0,72s32.4,72,72,72,72-32.4,72-72S111.6,0,72,0ZM90.5,112l-7.2-8.1-12.1,12.2c-13.9,0-26.6-6.8-34.6-18,1.4,0,2.7.5,4,.9,1.8,0,4-.9,4-4v-33.8c-.9-2.7-3.6-4.5-6.3-3.6-5.4,1.4-9.9,14.9-9.9,14.9,0-13,5.4-25.2,15.3-33.8,6.3-5.4,14-9,22.5-10.4-5.9,3.6-9.5,9-9.5,13.9,0,7.6,4.5,6.8,5.9,5.4v43.6c0,.5.5.9.9,1.3,1.4,1.8,3.1,2.7,5.4,2.7,4.5,0,10.4-5.4,10.4-5.4v-35.5c0-3.6-2.7-8.1-5.4-9.5,0,0,5-.9,9,2.2.9-.9,1.3-1.8,2.2-2.7,9-9,17.5-11.2,24.8-12.6,0,0-13,10.4-13,23.9v34.6c5,4.5,11.7-2.2,18.5-8.5-1.3,5.8-6.8,21.1-24.3,29.7h-.5v.5Z"/>
</svg>